ffmpeg version 3.4.8-0ubuntu0.2 Copyright (c) 2000-2020 the FFmpeg developers
  built with gcc 7 (Ubuntu 7.5.0-3ubuntu1~18.04)
  configuration: --prefix=/usr --extra-version=0ubuntu0.2 --toolchain=hardened --libdir=/usr/lib/x86_64-linux-gnu --incdir=/usr/include/x86_64-linux-gnu --enable-gpl --disable-stripping --enable-avresample --enable-avisynth --enable-gnutls --enable-ladspa --enable-libass --enable-libbluray --enable-libbs2b --enable-libcaca --enable-libcdio --enable-libflite --enable-libfontconfig --enable-libfreetype --enable-libfribidi --enable-libgme --enable-libgsm --enable-libmp3lame --enable-libmysofa --enable-libopenjpeg --enable-libopenmpt --enable-libopus --enable-libpulse --enable-librubberband --enable-librsvg --enable-libshine --enable-libsnappy --enable-libsoxr --enable-libspeex --enable-libssh --enable-libtheora --enable-libtwolame --enable-libvorbis --enable-libvpx --enable-libwavpack --enable-libwebp --enable-libx265 --enable-libxml2 --enable-libxvid --enable-libzmq --enable-libzvbi --enable-omx --enable-openal --enable-opengl --enable-sdl2 --enable-libdc1394 --enable-libdrm --enable-libiec61883 --enable-chromaprint --enable-frei0r --enable-libopencv --enable-libx264 --enable-shared
  libavutil      55. 78.100 / 55. 78.100
  libavcodec     57.107.100 / 57.107.100
  libavformat    57. 83.100 / 57. 83.100
  libavdevice    57. 10.100 / 57. 10.100
  libavfilter     6.107.100 /  6.107.100
  libavresample   3.  7.  0 /  3.  7.  0
  libswscale      4.  8.100 /  4.  8.100
  libswresample   2.  9.100 /  2.  9.100
  libpostproc    54.  7.100 / 54.  7.100
Input #0, mov,mp4,m4a,3gp,3g2,mj2, from '/root/results/2020-11-30_15:09:44/cases/661/test-nyan_cat-trimmed-661.mp4':
  Metadata:
    major_brand     : isom
    minor_version   : 512
    compatible_brands: isomiso2avc1mp41
  Duration: 00:00:00.68, start: 0.000000, bitrate: 372 kb/s
    Stream #0:0(und): Video: h264 (High) (avc1 / 0x31637661), yuv420p, 540x360 [SAR 1:1 DAR 3:2], 225 kb/s, 29.97 fps, 29.97 tbr, 30k tbn, 59.94 tbc (default)
    Metadata:
      handler_name    : Core Media Video
Stream mapping:
  Stream #0:0 -> #0:0 (h264 (native) -> mpeg4 (native))
Press [q] to stop, [?] for help
[h264 @ 0x55ff2851bb20] Invalid NAL unit size (1034 > 85).
[h264 @ 0x55ff2851bb20] Error splitting the input into NAL units.
[h264 @ 0x55ff28537e60] Invalid NAL unit size (555404527 > 8).
[h264 @ 0x55ff28537e60] Error splitting the input into NAL units.
[h264 @ 0x55ff28554140] Invalid NAL unit size (555404543 > 1551).
[h264 @ 0x55ff28554140] Error splitting the input into NAL units.
[h264 @ 0x55ff285704a0] Invalid NAL unit size (2124 > 1112).
[h264 @ 0x55ff285704a0] Error splitting the input into NAL units.
[h264 @ 0x55ff2858c800] Invalid NAL unit size (1004 > 83).
[h264 @ 0x55ff2858c800] Error splitting the input into NAL units.
[h264 @ 0x55ff285c4ec0] Invalid NAL unit size (555387115 > 1635).
[h264 @ 0x55ff285c4ec0] Error splitting the input into NAL units.
[h264 @ 0x55ff285e1220] Invalid NAL unit size (1636 > 910).
[h264 @ 0x55ff285e1220] Error splitting the input into NAL units.
[h264 @ 0x55ff285fd580] Invalid NAL unit size (1112 > 65).
[h264 @ 0x55ff285fd580] Error splitting the input into NAL units.
[h264 @ 0x55ff283d5660] Invalid NAL unit size (83 > 81).
[h264 @ 0x55ff283d5660] Error splitting the input into NAL units.
[h264 @ 0x55ff283f0aa0] Invalid NAL unit size (555405222 > 816).
[h264 @ 0x55ff283f0aa0] Error splitting the input into NAL units.
Output #0, avi, to '/root/results/2020-11-30_15:09:44/cases/661/output-nyan_cat-trimmed-661.avi':
  Metadata:
    major_brand     : isom
    minor_version   : 512
    compatible_brands: isomiso2avc1mp41
    ISFT            : Lavf57.83.100
    Stream #0:0(und): Video: mpeg4 (FMP4 / 0x34504D46), yuv420p, 540x360 [SAR 1:1 DAR 3:2], q=2-31, 200 kb/s, 29.97 fps, 29.97 tbn, 29.97 tbc (default)
    Metadata:
      handler_name    : Core Media Video
      encoder         : Lavc57.107.100 mpeg4
    Side data:
      cpb: bitrate max/min/avg: 0/0/200000 buffer size: 0 vbv_delay: -1
[h264 @ 0x55ff2845a080] Invalid NAL unit size (1729 > 81).
[h264 @ 0x55ff2845a080] Error splitting the input into NAL units.
[h264 @ 0x55ff2845e540] Invalid NAL unit size (910 > 94).
[h264 @ 0x55ff2845e540] Error splitting the input into NAL units.
Error while decoding stream #0:0: Invalid data found when processing input
    Last message repeated 11 times
frame=    6 fps=0.0 q=3.2 Lsize=      43kB time=00:00:00.40 bitrate= 876.0kbits/s dup=0 drop=2 speed=11.8x    
video:37kB audio:0kB subtitle:0kB other streams:0kB global headers:0kB muxing overhead: 16.010902%
